<mxfile host="app.diagrams.net" agent="Mozilla/5.0 (Macintosh; Intel Mac OS X 10_15_7) AppleWebKit/537.36 (KHTML, like Gecko) Chrome/130.0.0.0 Safari/537.36" version="24.8.4">
  <diagram id="C5RBs43oDa-KdzZeNtuy" name="Page-1">
    <mxGraphModel grid="1" page="1" gridSize="10" guides="1" tooltips="1" connect="1" arrows="1" fold="1" pageScale="1" pageWidth="827" pageHeight="1169" math="0" shadow="0">
      <root>
        <mxCell id="WIyWlLk6GJQsqaUBKTNV-0" />
        <mxCell id="WIyWlLk6GJQsqaUBKTNV-1" parent="WIyWlLk6GJQsqaUBKTNV-0" />
        <mxCell id="va2_-kU2H1jiuco8N1ax-3" value="DataTasksConfiguration" style="rounded=0;whiteSpace=wrap;html=1;fillColor=#fff2cc;container=0;strokeColor=#d6b656;gradientColor=none;" vertex="1" parent="WIyWlLk6GJQsqaUBKTNV-1">
          <mxGeometry x="520" y="450" width="160" height="60" as="geometry" />
        </mxCell>
        <mxCell id="LZZLjWpjytnXYlWd8Y8f-74" style="edgeStyle=orthogonalEdgeStyle;rounded=0;orthogonalLoop=1;jettySize=auto;html=1;noEdgeStyle=1;orthogonal=1;" edge="1" parent="WIyWlLk6GJQsqaUBKTNV-1" source="LZZLjWpjytnXYlWd8Y8f-1" target="LZZLjWpjytnXYlWd8Y8f-6">
          <mxGeometry relative="1" as="geometry">
            <Array as="points">
              <mxPoint x="696" y="304.16666666666663" />
              <mxPoint x="768" y="447.5" />
            </Array>
          </mxGeometry>
        </mxCell>
        <mxCell id="LZZLjWpjytnXYlWd8Y8f-75" style="edgeStyle=orthogonalEdgeStyle;rounded=0;orthogonalLoop=1;jettySize=auto;html=1;noEdgeStyle=1;orthogonal=1;" edge="1" parent="WIyWlLk6GJQsqaUBKTNV-1" source="LZZLjWpjytnXYlWd8Y8f-1" target="LZZLjWpjytnXYlWd8Y8f-7">
          <mxGeometry relative="1" as="geometry">
            <Array as="points">
              <mxPoint x="694" y="312.49999999999994" />
              <mxPoint x="768" y="512.5" />
            </Array>
          </mxGeometry>
        </mxCell>
        <mxCell id="LZZLjWpjytnXYlWd8Y8f-76" style="edgeStyle=orthogonalEdgeStyle;rounded=0;orthogonalLoop=1;jettySize=auto;html=1;noEdgeStyle=1;orthogonal=1;" edge="1" parent="WIyWlLk6GJQsqaUBKTNV-1" source="LZZLjWpjytnXYlWd8Y8f-1" target="LZZLjWpjytnXYlWd8Y8f-8">
          <mxGeometry relative="1" as="geometry">
            <Array as="points">
              <mxPoint x="692" y="320.83333333333326" />
              <mxPoint x="768" y="602.5" />
            </Array>
          </mxGeometry>
        </mxCell>
        <mxCell id="LZZLjWpjytnXYlWd8Y8f-77" style="edgeStyle=orthogonalEdgeStyle;rounded=0;orthogonalLoop=1;jettySize=auto;html=1;noEdgeStyle=1;orthogonal=1;" edge="1" parent="WIyWlLk6GJQsqaUBKTNV-1" source="LZZLjWpjytnXYlWd8Y8f-1" target="LZZLjWpjytnXYlWd8Y8f-9">
          <mxGeometry relative="1" as="geometry">
            <Array as="points">
              <mxPoint x="696" y="295.8333333333333" />
              <mxPoint x="768" y="357.5" />
            </Array>
          </mxGeometry>
        </mxCell>
        <mxCell id="LZZLjWpjytnXYlWd8Y8f-78" style="edgeStyle=orthogonalEdgeStyle;rounded=0;orthogonalLoop=1;jettySize=auto;html=1;noEdgeStyle=1;orthogonal=1;" edge="1" parent="WIyWlLk6GJQsqaUBKTNV-1" source="LZZLjWpjytnXYlWd8Y8f-1" target="LZZLjWpjytnXYlWd8Y8f-11">
          <mxGeometry relative="1" as="geometry">
            <Array as="points">
              <mxPoint x="692" y="279.1666666666667" />
              <mxPoint x="768" y="177.5" />
            </Array>
          </mxGeometry>
        </mxCell>
        <mxCell id="LZZLjWpjytnXYlWd8Y8f-79" style="edgeStyle=orthogonalEdgeStyle;rounded=0;orthogonalLoop=1;jettySize=auto;html=1;noEdgeStyle=1;orthogonal=1;" edge="1" parent="WIyWlLk6GJQsqaUBKTNV-1" source="LZZLjWpjytnXYlWd8Y8f-1" target="LZZLjWpjytnXYlWd8Y8f-12">
          <mxGeometry relative="1" as="geometry">
            <Array as="points">
              <mxPoint x="694" y="287.5" />
              <mxPoint x="768" y="271.6666666666667" />
            </Array>
          </mxGeometry>
        </mxCell>
        <mxCell id="LZZLjWpjytnXYlWd8Y8f-1" value="EmailFormatter" style="rounded=0;whiteSpace=wrap;html=1;fillColor=#D4E1F5;container=0;" vertex="1" parent="WIyWlLk6GJQsqaUBKTNV-1">
          <mxGeometry x="520" y="270" width="160" height="60" as="geometry" />
        </mxCell>
        <mxCell id="LZZLjWpjytnXYlWd8Y8f-2" value="ExecutorFactory" style="rounded=0;whiteSpace=wrap;html=1;fillColor=#D4E1F5;container=0;" vertex="1" parent="WIyWlLk6GJQsqaUBKTNV-1">
          <mxGeometry x="520" y="180" width="160" height="60" as="geometry" />
        </mxCell>
        <mxCell id="LZZLjWpjytnXYlWd8Y8f-3" value="IdNormalizer" style="rounded=0;whiteSpace=wrap;html=1;fillColor=#D4E1F5;container=0;" vertex="1" parent="WIyWlLk6GJQsqaUBKTNV-1">
          <mxGeometry x="520" y="360" width="160" height="60" as="geometry" />
        </mxCell>
        <mxCell id="LZZLjWpjytnXYlWd8Y8f-5" value="HSM Response Models" style="rounded=0;whiteSpace=wrap;html=1;fillColor=#FFCE9F;container=0;" vertex="1" parent="WIyWlLk6GJQsqaUBKTNV-1">
          <mxGeometry x="520" y="690" width="160" height="60" as="geometry" />
        </mxCell>
        <mxCell id="LZZLjWpjytnXYlWd8Y8f-6" value="ActiveTimMapping" style="rounded=0;whiteSpace=wrap;html=1;fillColor=#D4E1F5;container=0;" vertex="1" parent="WIyWlLk6GJQsqaUBKTNV-1">
          <mxGeometry x="788.25" y="405" width="160" height="60" as="geometry" />
        </mxCell>
        <mxCell id="LZZLjWpjytnXYlWd8Y8f-80" style="edgeStyle=orthogonalEdgeStyle;rounded=0;orthogonalLoop=1;jettySize=auto;html=1;shape=flexArrow;noEdgeStyle=1;orthogonal=1;" edge="1" parent="WIyWlLk6GJQsqaUBKTNV-1" source="LZZLjWpjytnXYlWd8Y8f-7" target="LZZLjWpjytnXYlWd8Y8f-13">
          <mxGeometry relative="1" as="geometry">
            <Array as="points">
              <mxPoint x="968.5" y="525" />
              <mxPoint x="1044.5" y="557.5" />
            </Array>
          </mxGeometry>
        </mxCell>
        <mxCell id="LZZLjWpjytnXYlWd8Y8f-7" value="CActiveTim" style="rounded=0;whiteSpace=wrap;html=1;fillColor=#D4E1F5;container=0;" vertex="1" parent="WIyWlLk6GJQsqaUBKTNV-1">
          <mxGeometry x="788.25" y="495" width="160" height="60" as="geometry" />
        </mxCell>
        <mxCell id="LZZLjWpjytnXYlWd8Y8f-81" style="edgeStyle=orthogonalEdgeStyle;rounded=0;orthogonalLoop=1;jettySize=auto;html=1;shape=flexArrow;noEdgeStyle=1;orthogonal=1;" edge="1" parent="WIyWlLk6GJQsqaUBKTNV-1" source="LZZLjWpjytnXYlWd8Y8f-8" target="LZZLjWpjytnXYlWd8Y8f-13">
          <mxGeometry relative="1" as="geometry">
            <Array as="points">
              <mxPoint x="968.5" y="615" />
              <mxPoint x="1044.5" y="582.5" />
            </Array>
          </mxGeometry>
        </mxCell>
        <mxCell id="LZZLjWpjytnXYlWd8Y8f-8" value="CAdvisorySituationDataDeposit" style="rounded=0;whiteSpace=wrap;html=1;fillColor=#D4E1F5;container=0;" vertex="1" parent="WIyWlLk6GJQsqaUBKTNV-1">
          <mxGeometry x="780" y="585" width="176.5" height="60" as="geometry" />
        </mxCell>
        <mxCell id="LZZLjWpjytnXYlWd8Y8f-9" value="Collision" style="rounded=0;whiteSpace=wrap;html=1;fillColor=#D4E1F5;container=0;" vertex="1" parent="WIyWlLk6GJQsqaUBKTNV-1">
          <mxGeometry x="788.25" y="315" width="160" height="60" as="geometry" />
        </mxCell>
        <mxCell id="LZZLjWpjytnXYlWd8Y8f-10" value="RsuInformation" style="rounded=0;whiteSpace=wrap;html=1;fillColor=#D4E1F5;container=0;" vertex="1" parent="WIyWlLk6GJQsqaUBKTNV-1">
          <mxGeometry x="788.25" y="30" width="160" height="60" as="geometry" />
        </mxCell>
        <mxCell id="LZZLjWpjytnXYlWd8Y8f-11" value="RsuValidationRecord" style="rounded=0;whiteSpace=wrap;html=1;fillColor=#D4E1F5;container=0;" vertex="1" parent="WIyWlLk6GJQsqaUBKTNV-1">
          <mxGeometry x="788.25" y="135" width="160" height="60" as="geometry" />
        </mxCell>
        <mxCell id="LZZLjWpjytnXYlWd8Y8f-12" value="RsuValidationResult" style="rounded=0;whiteSpace=wrap;html=1;fillColor=#D4E1F5;container=0;" vertex="1" parent="WIyWlLk6GJQsqaUBKTNV-1">
          <mxGeometry x="788.25" y="225" width="160" height="60" as="geometry" />
        </mxCell>
        <mxCell id="LZZLjWpjytnXYlWd8Y8f-13" value="SdxComparable" style="rounded=0;whiteSpace=wrap;html=1;fillColor=#D4E1F5;container=0;" vertex="1" parent="WIyWlLk6GJQsqaUBKTNV-1">
          <mxGeometry x="1056.5" y="540" width="160" height="60" as="geometry" />
        </mxCell>
        <mxCell id="LZZLjWpjytnXYlWd8Y8f-14" value="SignTimModel" style="rounded=0;whiteSpace=wrap;html=1;fillColor=#D4E1F5;container=0;" vertex="1" parent="WIyWlLk6GJQsqaUBKTNV-1">
          <mxGeometry x="520" y="600" width="160" height="60" as="geometry" />
        </mxCell>
        <mxCell id="LZZLjWpjytnXYlWd8Y8f-38" style="edgeStyle=orthogonalEdgeStyle;rounded=0;orthogonalLoop=1;jettySize=auto;html=1;noEdgeStyle=1;orthogonal=1;" edge="1" parent="WIyWlLk6GJQsqaUBKTNV-1" source="LZZLjWpjytnXYlWd8Y8f-15" target="LZZLjWpjytnXYlWd8Y8f-27">
          <mxGeometry relative="1" as="geometry">
            <Array as="points">
              <mxPoint x="176" y="388.3333333333334" />
              <mxPoint x="248" y="525" />
            </Array>
          </mxGeometry>
        </mxCell>
        <mxCell id="LZZLjWpjytnXYlWd8Y8f-39" style="edgeStyle=orthogonalEdgeStyle;rounded=0;orthogonalLoop=1;jettySize=auto;html=1;noEdgeStyle=1;orthogonal=1;" edge="1" parent="WIyWlLk6GJQsqaUBKTNV-1" source="LZZLjWpjytnXYlWd8Y8f-15" target="LZZLjWpjytnXYlWd8Y8f-29">
          <mxGeometry relative="1" as="geometry">
            <Array as="points">
              <mxPoint x="176" y="361.6666666666667" />
              <mxPoint x="248" y="225" />
            </Array>
          </mxGeometry>
        </mxCell>
        <mxCell id="LZZLjWpjytnXYlWd8Y8f-40" style="edgeStyle=orthogonalEdgeStyle;rounded=0;orthogonalLoop=1;jettySize=auto;html=1;noEdgeStyle=1;orthogonal=1;" edge="1" parent="WIyWlLk6GJQsqaUBKTNV-1" source="LZZLjWpjytnXYlWd8Y8f-15" target="LZZLjWpjytnXYlWd8Y8f-30">
          <mxGeometry relative="1" as="geometry">
            <Array as="points">
              <mxPoint x="178" y="368.33333333333337" />
              <mxPoint x="248" y="315" />
            </Array>
          </mxGeometry>
        </mxCell>
        <mxCell id="LZZLjWpjytnXYlWd8Y8f-41" style="edgeStyle=orthogonalEdgeStyle;rounded=0;orthogonalLoop=1;jettySize=auto;html=1;noEdgeStyle=1;orthogonal=1;" edge="1" parent="WIyWlLk6GJQsqaUBKTNV-1" source="LZZLjWpjytnXYlWd8Y8f-15" target="LZZLjWpjytnXYlWd8Y8f-32">
          <mxGeometry relative="1" as="geometry">
            <Array as="points">
              <mxPoint x="172" y="348.3333333333333" />
              <mxPoint x="248" y="45" />
            </Array>
          </mxGeometry>
        </mxCell>
        <mxCell id="LZZLjWpjytnXYlWd8Y8f-42" style="edgeStyle=orthogonalEdgeStyle;rounded=0;orthogonalLoop=1;jettySize=auto;html=1;noEdgeStyle=1;orthogonal=1;" edge="1" parent="WIyWlLk6GJQsqaUBKTNV-1" source="LZZLjWpjytnXYlWd8Y8f-15" target="LZZLjWpjytnXYlWd8Y8f-33">
          <mxGeometry relative="1" as="geometry">
            <Array as="points">
              <mxPoint x="174" y="395.0000000000001" />
              <mxPoint x="248" y="615" />
            </Array>
          </mxGeometry>
        </mxCell>
        <mxCell id="LZZLjWpjytnXYlWd8Y8f-44" style="edgeStyle=orthogonalEdgeStyle;rounded=0;orthogonalLoop=1;jettySize=auto;html=1;noEdgeStyle=1;orthogonal=1;" edge="1" parent="WIyWlLk6GJQsqaUBKTNV-1" source="LZZLjWpjytnXYlWd8Y8f-15" target="LZZLjWpjytnXYlWd8Y8f-34">
          <mxGeometry relative="1" as="geometry">
            <Array as="points">
              <mxPoint x="174" y="355" />
              <mxPoint x="248" y="135" />
            </Array>
          </mxGeometry>
        </mxCell>
        <mxCell id="LZZLjWpjytnXYlWd8Y8f-45" style="edgeStyle=orthogonalEdgeStyle;rounded=0;orthogonalLoop=1;jettySize=auto;html=1;noEdgeStyle=1;orthogonal=1;" edge="1" parent="WIyWlLk6GJQsqaUBKTNV-1" source="LZZLjWpjytnXYlWd8Y8f-15" target="LZZLjWpjytnXYlWd8Y8f-35">
          <mxGeometry relative="1" as="geometry">
            <Array as="points">
              <mxPoint x="172" y="401.6666666666668" />
              <mxPoint x="248" y="705" />
            </Array>
          </mxGeometry>
        </mxCell>
        <mxCell id="LZZLjWpjytnXYlWd8Y8f-46" style="edgeStyle=orthogonalEdgeStyle;rounded=0;orthogonalLoop=1;jettySize=auto;html=1;noEdgeStyle=1;orthogonal=1;fillColor=#fff2cc;strokeColor=#d6b656;" edge="1" parent="WIyWlLk6GJQsqaUBKTNV-1" source="LZZLjWpjytnXYlWd8Y8f-15" target="va2_-kU2H1jiuco8N1ax-3">
          <mxGeometry relative="1" as="geometry">
            <Array as="points">
              <mxPoint x="180" y="375.00000000000006" />
              <mxPoint x="210" y="375" />
              <mxPoint x="470" y="375" />
              <mxPoint x="500" y="480.00000000000006" />
            </Array>
          </mxGeometry>
        </mxCell>
        <mxCell id="LZZLjWpjytnXYlWd8Y8f-15" value="Application" style="rounded=0;whiteSpace=wrap;html=1;fillColor=#D4E1F5;container=0;" vertex="1" parent="WIyWlLk6GJQsqaUBKTNV-1">
          <mxGeometry y="345" width="160" height="60" as="geometry" />
        </mxCell>
        <mxCell id="LZZLjWpjytnXYlWd8Y8f-47" style="edgeStyle=orthogonalEdgeStyle;rounded=0;orthogonalLoop=1;jettySize=auto;html=1;noEdgeStyle=1;orthogonal=1;fillColor=#fff2cc;strokeColor=#d6b656;" edge="1" parent="WIyWlLk6GJQsqaUBKTNV-1" source="LZZLjWpjytnXYlWd8Y8f-27" target="va2_-kU2H1jiuco8N1ax-3">
          <mxGeometry relative="1" as="geometry">
            <Array as="points">
              <mxPoint x="432" y="525" />
              <mxPoint x="504" y="493.3333333333334" />
            </Array>
          </mxGeometry>
        </mxCell>
        <mxCell id="LZZLjWpjytnXYlWd8Y8f-49" style="edgeStyle=orthogonalEdgeStyle;rounded=0;orthogonalLoop=1;jettySize=auto;html=1;noEdgeStyle=1;orthogonal=1;fillColor=#fff2cc;strokeColor=#d6b656;" edge="1" parent="WIyWlLk6GJQsqaUBKTNV-1" source="LZZLjWpjytnXYlWd8Y8f-29" target="va2_-kU2H1jiuco8N1ax-3">
          <mxGeometry relative="1" as="geometry">
            <Array as="points">
              <mxPoint x="432" y="225" />
              <mxPoint x="504" y="466.6666666666667" />
            </Array>
          </mxGeometry>
        </mxCell>
        <mxCell id="LZZLjWpjytnXYlWd8Y8f-50" style="edgeStyle=orthogonalEdgeStyle;rounded=0;orthogonalLoop=1;jettySize=auto;html=1;noEdgeStyle=1;orthogonal=1;fillColor=#fff2cc;strokeColor=#d6b656;" edge="1" parent="WIyWlLk6GJQsqaUBKTNV-1" source="LZZLjWpjytnXYlWd8Y8f-30" target="va2_-kU2H1jiuco8N1ax-3">
          <mxGeometry relative="1" as="geometry">
            <Array as="points">
              <mxPoint x="432" y="315" />
              <mxPoint x="502" y="473.33333333333337" />
            </Array>
          </mxGeometry>
        </mxCell>
        <mxCell id="LZZLjWpjytnXYlWd8Y8f-51" style="edgeStyle=orthogonalEdgeStyle;rounded=0;orthogonalLoop=1;jettySize=auto;html=1;noEdgeStyle=1;orthogonal=1;" edge="1" parent="WIyWlLk6GJQsqaUBKTNV-1" source="LZZLjWpjytnXYlWd8Y8f-31" target="LZZLjWpjytnXYlWd8Y8f-6">
          <mxGeometry relative="1" as="geometry">
            <Array as="points">
              <mxPoint x="692" y="138.75" />
              <mxPoint x="768" y="422.5" />
            </Array>
          </mxGeometry>
        </mxCell>
        <mxCell id="LZZLjWpjytnXYlWd8Y8f-52" style="edgeStyle=orthogonalEdgeStyle;rounded=0;orthogonalLoop=1;jettySize=auto;html=1;noEdgeStyle=1;orthogonal=1;" edge="1" parent="WIyWlLk6GJQsqaUBKTNV-1" source="LZZLjWpjytnXYlWd8Y8f-31" target="LZZLjWpjytnXYlWd8Y8f-9">
          <mxGeometry relative="1" as="geometry">
            <Array as="points">
              <mxPoint x="694" y="126.25" />
              <mxPoint x="768" y="332.5" />
            </Array>
          </mxGeometry>
        </mxCell>
        <mxCell id="LZZLjWpjytnXYlWd8Y8f-53" style="edgeStyle=orthogonalEdgeStyle;rounded=0;orthogonalLoop=1;jettySize=auto;html=1;noEdgeStyle=1;orthogonal=1;" edge="1" parent="WIyWlLk6GJQsqaUBKTNV-1" source="LZZLjWpjytnXYlWd8Y8f-31" target="LZZLjWpjytnXYlWd8Y8f-10">
          <mxGeometry relative="1" as="geometry">
            <Array as="points">
              <mxPoint x="692" y="101.25" />
              <mxPoint x="768" y="72.5" />
            </Array>
          </mxGeometry>
        </mxCell>
        <mxCell id="LZZLjWpjytnXYlWd8Y8f-54" style="edgeStyle=orthogonalEdgeStyle;rounded=0;orthogonalLoop=1;jettySize=auto;html=1;noEdgeStyle=1;orthogonal=1;" edge="1" parent="WIyWlLk6GJQsqaUBKTNV-1" source="LZZLjWpjytnXYlWd8Y8f-31" target="LZZLjWpjytnXYlWd8Y8f-12">
          <mxGeometry relative="1" as="geometry">
            <Array as="points">
              <mxPoint x="694" y="113.75" />
              <mxPoint x="766" y="255" />
            </Array>
          </mxGeometry>
        </mxCell>
        <mxCell id="LZZLjWpjytnXYlWd8Y8f-31" value="ValidateRsu" style="rounded=0;whiteSpace=wrap;html=1;fillColor=#D4E1F5;container=0;" vertex="1" parent="WIyWlLk6GJQsqaUBKTNV-1">
          <mxGeometry x="520" y="90" width="160" height="60" as="geometry" />
        </mxCell>
        <mxCell id="LZZLjWpjytnXYlWd8Y8f-55" style="edgeStyle=orthogonalEdgeStyle;rounded=0;orthogonalLoop=1;jettySize=auto;html=1;noEdgeStyle=1;orthogonal=1;fillColor=#fff2cc;strokeColor=#d6b656;" edge="1" parent="WIyWlLk6GJQsqaUBKTNV-1" source="LZZLjWpjytnXYlWd8Y8f-32" target="va2_-kU2H1jiuco8N1ax-3">
          <mxGeometry relative="1" as="geometry">
            <Array as="points">
              <mxPoint x="432" y="66.42857142857144" />
              <mxPoint x="508" y="453.3333333333333" />
            </Array>
          </mxGeometry>
        </mxCell>
        <mxCell id="LZZLjWpjytnXYlWd8Y8f-57" style="edgeStyle=orthogonalEdgeStyle;rounded=0;orthogonalLoop=1;jettySize=auto;html=1;noEdgeStyle=1;orthogonal=1;" edge="1" parent="WIyWlLk6GJQsqaUBKTNV-1" source="LZZLjWpjytnXYlWd8Y8f-32" target="LZZLjWpjytnXYlWd8Y8f-1">
          <mxGeometry relative="1" as="geometry">
            <Array as="points">
              <mxPoint x="434" y="59.2857142857143" />
              <mxPoint x="508" y="283.3333333333333" />
            </Array>
          </mxGeometry>
        </mxCell>
        <mxCell id="LZZLjWpjytnXYlWd8Y8f-58" style="edgeStyle=orthogonalEdgeStyle;rounded=0;orthogonalLoop=1;jettySize=auto;html=1;noEdgeStyle=1;orthogonal=1;" edge="1" parent="WIyWlLk6GJQsqaUBKTNV-1" source="LZZLjWpjytnXYlWd8Y8f-32" target="LZZLjWpjytnXYlWd8Y8f-2">
          <mxGeometry relative="1" as="geometry">
            <Array as="points">
              <mxPoint x="436" y="52.14285714285715" />
              <mxPoint x="508" y="210" />
            </Array>
          </mxGeometry>
        </mxCell>
        <mxCell id="LZZLjWpjytnXYlWd8Y8f-60" style="edgeStyle=orthogonalEdgeStyle;rounded=0;orthogonalLoop=1;jettySize=auto;html=1;noEdgeStyle=1;orthogonal=1;" edge="1" parent="WIyWlLk6GJQsqaUBKTNV-1" source="LZZLjWpjytnXYlWd8Y8f-32" target="LZZLjWpjytnXYlWd8Y8f-10">
          <mxGeometry relative="1" as="geometry">
            <Array as="points">
              <mxPoint x="432" y="23.571428571428573" />
              <mxPoint x="470" />
              <mxPoint x="730" />
              <mxPoint x="768" y="47.5" />
            </Array>
          </mxGeometry>
        </mxCell>
        <mxCell id="LZZLjWpjytnXYlWd8Y8f-61" style="edgeStyle=orthogonalEdgeStyle;rounded=0;orthogonalLoop=1;jettySize=auto;html=1;noEdgeStyle=1;orthogonal=1;" edge="1" parent="WIyWlLk6GJQsqaUBKTNV-1" source="LZZLjWpjytnXYlWd8Y8f-32" target="LZZLjWpjytnXYlWd8Y8f-11">
          <mxGeometry relative="1" as="geometry">
            <Array as="points">
              <mxPoint x="434" y="30.714285714285715" />
              <mxPoint x="470" y="30" />
              <mxPoint x="730" y="30" />
              <mxPoint x="768" y="152.5" />
            </Array>
          </mxGeometry>
        </mxCell>
        <mxCell id="LZZLjWpjytnXYlWd8Y8f-62" style="edgeStyle=orthogonalEdgeStyle;rounded=0;orthogonalLoop=1;jettySize=auto;html=1;noEdgeStyle=1;orthogonal=1;" edge="1" parent="WIyWlLk6GJQsqaUBKTNV-1" source="LZZLjWpjytnXYlWd8Y8f-32" target="LZZLjWpjytnXYlWd8Y8f-12">
          <mxGeometry relative="1" as="geometry">
            <Array as="points">
              <mxPoint x="436" y="37.85714285714286" />
              <mxPoint x="470" y="60" />
              <mxPoint x="730" y="60" />
              <mxPoint x="768" y="238.33333333333334" />
            </Array>
          </mxGeometry>
        </mxCell>
        <mxCell id="LZZLjWpjytnXYlWd8Y8f-82" style="edgeStyle=orthogonalEdgeStyle;rounded=0;orthogonalLoop=1;jettySize=auto;html=1;noEdgeStyle=1;orthogonal=1;" edge="1" parent="WIyWlLk6GJQsqaUBKTNV-1" source="LZZLjWpjytnXYlWd8Y8f-32" target="LZZLjWpjytnXYlWd8Y8f-31">
          <mxGeometry relative="1" as="geometry">
            <Array as="points">
              <mxPoint x="438" y="45.00000000000001" />
              <mxPoint x="508" y="120" />
            </Array>
          </mxGeometry>
        </mxCell>
        <mxCell id="LZZLjWpjytnXYlWd8Y8f-32" value="ValidateRsus" style="rounded=0;whiteSpace=wrap;html=1;fillColor=#D4E1F5;container=0;" vertex="1" parent="WIyWlLk6GJQsqaUBKTNV-1">
          <mxGeometry x="260" y="15" width="160" height="60" as="geometry" />
        </mxCell>
        <mxCell id="LZZLjWpjytnXYlWd8Y8f-63" style="edgeStyle=orthogonalEdgeStyle;rounded=0;orthogonalLoop=1;jettySize=auto;html=1;noEdgeStyle=1;orthogonal=1;fillColor=#fff2cc;strokeColor=#d6b656;" edge="1" parent="WIyWlLk6GJQsqaUBKTNV-1" source="LZZLjWpjytnXYlWd8Y8f-33" target="va2_-kU2H1jiuco8N1ax-3">
          <mxGeometry relative="1" as="geometry">
            <Array as="points">
              <mxPoint x="434" y="608.75" />
              <mxPoint x="506" y="500.0000000000001" />
            </Array>
          </mxGeometry>
        </mxCell>
        <mxCell id="LZZLjWpjytnXYlWd8Y8f-64" style="edgeStyle=orthogonalEdgeStyle;rounded=0;orthogonalLoop=1;jettySize=auto;html=1;noEdgeStyle=1;orthogonal=1;" edge="1" parent="WIyWlLk6GJQsqaUBKTNV-1" source="LZZLjWpjytnXYlWd8Y8f-33" target="LZZLjWpjytnXYlWd8Y8f-1">
          <mxGeometry relative="1" as="geometry">
            <Array as="points">
              <mxPoint x="432" y="596.25" />
              <mxPoint x="508" y="316.6666666666667" />
            </Array>
          </mxGeometry>
        </mxCell>
        <mxCell id="LZZLjWpjytnXYlWd8Y8f-65" style="edgeStyle=orthogonalEdgeStyle;rounded=0;orthogonalLoop=1;jettySize=auto;html=1;noEdgeStyle=1;orthogonal=1;" edge="1" parent="WIyWlLk6GJQsqaUBKTNV-1" source="LZZLjWpjytnXYlWd8Y8f-33" target="LZZLjWpjytnXYlWd8Y8f-7">
          <mxGeometry relative="1" as="geometry">
            <Array as="points">
              <mxPoint x="434" y="621.25" />
              <mxPoint x="470" y="540" />
              <mxPoint x="730" y="540" />
              <mxPoint x="768" y="537.5" />
            </Array>
          </mxGeometry>
        </mxCell>
        <mxCell id="LZZLjWpjytnXYlWd8Y8f-66" style="edgeStyle=orthogonalEdgeStyle;rounded=0;orthogonalLoop=1;jettySize=auto;html=1;noEdgeStyle=1;orthogonal=1;" edge="1" parent="WIyWlLk6GJQsqaUBKTNV-1" source="LZZLjWpjytnXYlWd8Y8f-33" target="LZZLjWpjytnXYlWd8Y8f-8">
          <mxGeometry relative="1" as="geometry">
            <Array as="points">
              <mxPoint x="432" y="633.75" />
              <mxPoint x="470" y="570" />
              <mxPoint x="730" y="570" />
              <mxPoint x="768" y="627.5" />
            </Array>
          </mxGeometry>
        </mxCell>
        <mxCell id="LZZLjWpjytnXYlWd8Y8f-67" style="edgeStyle=orthogonalEdgeStyle;rounded=0;orthogonalLoop=1;jettySize=auto;html=1;noEdgeStyle=1;orthogonal=1;fillColor=#fff2cc;strokeColor=#d6b656;" edge="1" parent="WIyWlLk6GJQsqaUBKTNV-1" source="LZZLjWpjytnXYlWd8Y8f-34" target="va2_-kU2H1jiuco8N1ax-3">
          <mxGeometry relative="1" as="geometry">
            <Array as="points">
              <mxPoint x="432" y="151.66666666666666" />
              <mxPoint x="506" y="460" />
            </Array>
          </mxGeometry>
        </mxCell>
        <mxCell id="LZZLjWpjytnXYlWd8Y8f-68" style="edgeStyle=orthogonalEdgeStyle;rounded=0;orthogonalLoop=1;jettySize=auto;html=1;noEdgeStyle=1;orthogonal=1;" edge="1" parent="WIyWlLk6GJQsqaUBKTNV-1" source="LZZLjWpjytnXYlWd8Y8f-34" target="LZZLjWpjytnXYlWd8Y8f-1">
          <mxGeometry relative="1" as="geometry">
            <Array as="points">
              <mxPoint x="432" y="118.33333333333333" />
              <mxPoint x="506" y="300" />
            </Array>
          </mxGeometry>
        </mxCell>
        <mxCell id="LZZLjWpjytnXYlWd8Y8f-69" style="edgeStyle=orthogonalEdgeStyle;rounded=0;orthogonalLoop=1;jettySize=auto;html=1;noEdgeStyle=1;orthogonal=1;" edge="1" parent="WIyWlLk6GJQsqaUBKTNV-1" source="LZZLjWpjytnXYlWd8Y8f-34" target="LZZLjWpjytnXYlWd8Y8f-3">
          <mxGeometry relative="1" as="geometry">
            <Array as="points">
              <mxPoint x="434" y="135" />
              <mxPoint x="508" y="390" />
            </Array>
          </mxGeometry>
        </mxCell>
        <mxCell id="LZZLjWpjytnXYlWd8Y8f-70" style="edgeStyle=orthogonalEdgeStyle;rounded=0;orthogonalLoop=1;jettySize=auto;html=1;noEdgeStyle=1;orthogonal=1;fillColor=#fff2cc;strokeColor=#d6b656;" edge="1" parent="WIyWlLk6GJQsqaUBKTNV-1" source="LZZLjWpjytnXYlWd8Y8f-35" target="va2_-kU2H1jiuco8N1ax-3">
          <mxGeometry relative="1" as="geometry">
            <Array as="points">
              <mxPoint x="432" y="688.3333333333334" />
              <mxPoint x="508" y="506.6666666666668" />
            </Array>
          </mxGeometry>
        </mxCell>
        <mxCell id="LZZLjWpjytnXYlWd8Y8f-72" style="edgeStyle=orthogonalEdgeStyle;rounded=0;orthogonalLoop=1;jettySize=auto;html=1;noEdgeStyle=1;orthogonal=1;" edge="1" parent="WIyWlLk6GJQsqaUBKTNV-1" source="LZZLjWpjytnXYlWd8Y8f-35" target="LZZLjWpjytnXYlWd8Y8f-14">
          <mxGeometry relative="1" as="geometry">
            <Array as="points">
              <mxPoint x="434" y="705" />
              <mxPoint x="508" y="630" />
            </Array>
          </mxGeometry>
        </mxCell>
        <mxCell id="LZZLjWpjytnXYlWd8Y8f-73" style="edgeStyle=orthogonalEdgeStyle;rounded=0;orthogonalLoop=1;jettySize=auto;html=1;noEdgeStyle=1;orthogonal=1;" edge="1" parent="WIyWlLk6GJQsqaUBKTNV-1" source="LZZLjWpjytnXYlWd8Y8f-35" target="LZZLjWpjytnXYlWd8Y8f-5">
          <mxGeometry relative="1" as="geometry">
            <Array as="points">
              <mxPoint x="432" y="721.6666666666666" />
              <mxPoint x="508" y="720" />
            </Array>
          </mxGeometry>
        </mxCell>
        <mxCell id="LZZLjWpjytnXYlWd8Y8f-85" value="cv-data-tasks" style="swimlane;whiteSpace=wrap;html=1;" vertex="1" parent="WIyWlLk6GJQsqaUBKTNV-1">
          <mxGeometry x="-30" y="-65" width="1270" height="835" as="geometry" />
        </mxCell>
        <mxCell id="LZZLjWpjytnXYlWd8Y8f-29" value="RemoveExpiredActiveTims" style="rounded=0;whiteSpace=wrap;html=1;fillColor=#D4E1F5;container=0;" vertex="1" parent="LZZLjWpjytnXYlWd8Y8f-85">
          <mxGeometry x="290" y="285" width="160" height="60" as="geometry" />
        </mxCell>
        <mxCell id="LZZLjWpjytnXYlWd8Y8f-30" value="RetentionPolicyEnforcement" style="rounded=0;whiteSpace=wrap;html=1;fillColor=#D4E1F5;container=0;" vertex="1" parent="LZZLjWpjytnXYlWd8Y8f-85">
          <mxGeometry x="290" y="375" width="160" height="60" as="geometry" />
        </mxCell>
        <mxCell id="LZZLjWpjytnXYlWd8Y8f-34" value="ValidateTmdd" style="rounded=0;whiteSpace=wrap;html=1;fillColor=#D4E1F5;container=0;" vertex="1" parent="LZZLjWpjytnXYlWd8Y8f-85">
          <mxGeometry x="290" y="195" width="160" height="60" as="geometry" />
        </mxCell>
        <mxCell id="LZZLjWpjytnXYlWd8Y8f-27" value="CleanupActiveTims" style="rounded=0;whiteSpace=wrap;html=1;fillColor=#D4E1F5;container=0;" vertex="1" parent="LZZLjWpjytnXYlWd8Y8f-85">
          <mxGeometry x="290" y="560" width="160" height="60" as="geometry" />
        </mxCell>
        <mxCell id="LZZLjWpjytnXYlWd8Y8f-33" value="ValidateSdx" style="rounded=0;whiteSpace=wrap;html=1;fillColor=#D4E1F5;container=0;" vertex="1" parent="LZZLjWpjytnXYlWd8Y8f-85">
          <mxGeometry x="290" y="650" width="160" height="60" as="geometry" />
        </mxCell>
        <mxCell id="LZZLjWpjytnXYlWd8Y8f-35" value="VerifyHSMFunctional" style="rounded=0;whiteSpace=wrap;html=1;fillColor=#D4E1F5;container=0;" vertex="1" parent="LZZLjWpjytnXYlWd8Y8f-85">
          <mxGeometry x="290" y="740" width="160" height="60" as="geometry" />
        </mxCell>
      </root>
    </mxGraphModel>
  </diagram>
</mxfile>
